<?xml version="1.0" standalone="no"?>
<!DOCTYPE svg PUBLIC "-//W3C//DTD SVG 20010904//EN"
 "http://www.w3.org/TR/2001/REC-SVG-20010904/DTD/svg10.dtd">
<svg version="1.0" xmlns="http://www.w3.org/2000/svg"
 width="300.000000pt" height="300.000000pt" viewBox="0 0 300.000000 300.000000"
 preserveAspectRatio="xMidYMid meet">
<metadata>
Created by potrace 1.14, written by Peter Selinger 2001-2017
</metadata>
<g transform="translate(0.000000,300.000000) scale(0.100000,-0.100000)"
fill="#000000" stroke="none">
<path d="M968 2546 c-1 -2 -33 -6 -69 -9 -243 -21 -460 -198 -547 -446 -37
-108 -40 -262 -6 -378 57 -198 213 -364 406 -435 32 -11 58 -23 58 -25 0 -17
-38 -63 -73 -89 -59 -44 -96 -53 -222 -55 -60 -1 -135 -8 -165 -16 -111 -28
-202 -105 -254 -213 -30 -63 -31 -70 -36 -239 -5 -167 -4 -174 15 -180 16 -5
152 -7 228 -2 15 1 17 15 17 142 0 228 17 245 244 250 164 3 275 45 379 144
l29 27 31 -30 c101 -96 227 -142 386 -142 134 0 173 -11 208 -56 26 -35 26
-38 27 -184 0 -126 3 -149 16 -152 12 -3 223 -2 241 1 3 1 4 76 3 168 -2 144
-5 176 -23 225 -43 113 -140 204 -255 240 -17 5 -97 13 -177 17 -133 6 -149 9
-192 34 -40 24 -107 91 -107 108 0 3 19 12 43 19 213 69 387 261 437 485 12
56 15 176 6 235 -46 284 -288 520 -560 546 -33 3 -66 7 -73 9 -6 2 -13 2 -15
1z m165 -300 c180 -79 271 -289 207 -480 -76 -229 -355 -335 -563 -213 -240
141 -262 477 -43 646 116 90 263 107 399 47z"/>
<path d="M2285 2528 c-77 -14 -184 -70 -241 -127 -40 -39 -114 -152 -119 -181
-1 -3 -7 -23 -13 -45 -19 -65 -38 -178 -34 -202 3 -17 10 -23 30 -23 54 -1
198 -2 230 -1 29 1 32 4 32 31 0 45 20 131 41 171 23 46 77 94 125 109 47 16
149 8 193 -15 47 -24 77 -61 102 -125 17 -45 20 -69 16 -131 -8 -102 -40 -177
-128 -303 -40 -55 -86 -121 -104 -146 -105 -151 -158 -303 -169 -488 l-3 -63
144 3 145 3 3 58 c5 74 11 105 41 199 28 84 62 142 179 299 130 176 170 263
183 405 22 238 -73 435 -253 523 -107 52 -270 72 -400 49z"/>
<path d="M2241 755 c-5 -8 -7 -227 -2 -282 1 -10 39 -13 151 -12 l151 0 -3
152 -3 151 -143 1 c-85 0 -147 -4 -151 -10z"/>
</g>
</svg>
